# xmcd
#
# Track frame offsets: 
#        150
#        14850
#        30461
#        46184
#        60614
#        74213
#        86587
#        99614
#        112917
#        126131
#        140708
#        151100
#        163082
#        172051
#        184952
#        198073
#        213725
#        227129
#        241004
#        253643
#
# Disc length: 3568 seconds
#
# Revision: 1
# Processed by: cddbd v1.5.2PL0 Copyright (c) Steve Scherf et al.
# Submitted via: ExactAudioCopyFreeDBPlugin 1.0
#
DISCID=1f0dee14
DTITLE=Leroy Carr and Scrapper Blackwell, Pee Wee Crayton - ABC Of The B
DTITLE=lues - Vol. 07 Carr, Blackwell, Crayton
DYEAR=2010
DGENRE=Blues
TTITLE0=Leroy Carr and Scrapper Blackwell - Wrong Man Blues
TTITLE1=Leroy Carr and Scrapper Blackwell - Gettin' All Wet
TTITLE2=Leroy Carr and Scrapper Blackwell - Blue With The Blues
TTITLE3=Leroy Carr and Scrapper Blackwell - Christmas In Jail, Ain't Tha
TTITLE3=t A Pain
TTITLE4=Leroy Carr and Scrapper Blackwell - That's Tellin'em
TTITLE5=Leroy Carr and Scrapper Blackwell - Papa Wants A Cookie
TTITLE6=Leroy Carr and Scrapper Blackwell - The Dirty Dozen
TTITLE7=Leroy Carr and Scrapper Blackwell - Carried Water For The Elepha
TTITLE7=nt
TTITLE8=Leroy Carr and Scrapper Blackwell - Let's Disagree
TTITLE9=Leroy Carr and Scrapper Blackwell - Papa's Got Your Water On
TTITLE10=Pee Wee Crayton - Win-O
TTITLE11=Pee Wee Crayton - I Got News For You
TTITLE12=Pee Wee Crayton - Blues Before Dawn
TTITLE13=Pee Wee Crayton - Don't Break My Heart
TTITLE14=Pee Wee Crayton - The Telephone Is Ringing
TTITLE15=Pee Wee Crayton - California Women
TTITLE16=Pee Wee Crayton - Blues For My Baby
TTITLE17=Pee Wee Crayton - Dedicated To The Blues
TTITLE18=Pee Wee Crayton - Phone Call From My Baby
TTITLE19=Pee Wee Crayton - Blues After Hours
EXTD=
EXTT0=
EXTT1=
EXTT2=
EXTT3=
EXTT4=
EXTT5=
EXTT6=
EXTT7=
EXTT8=
EXTT9=
EXTT10=
EXTT11=
EXTT12=
EXTT13=
EXTT14=
EXTT15=
EXTT16=
EXTT17=
EXTT18=
EXTT19=
PLAYORDER=
